<svg width="110" height="73" viewBox="0 0 110 73" fill="none" xmlns="http://www.w3.org/2000/svg">
<path d="M96.8968 31.386C96.4761 33.1729 95.1061 34.3776 93.8401 34.0783C92.5741 33.779 91.8904 32.0898 92.3112 30.3028C92.7319 28.5159 94.1018 27.3125 95.3666 27.6118C96.6313 27.9111 97.3188 29.6003 96.8956 31.3847" fill="#009AFF"/>
<path d="M8.20834 16.3555H19.5235V19.3608H12.104V22.6166H18.6294V25.6633H12.104V31.9244H8.21336L8.20834 16.3555Z" fill="#485665"/>
<path d="M20.9343 25.965V16.3229H24.8237V25.6031C24.8405 26.4574 25.1916 27.271 25.8016 27.8692C26.4117 28.4674 27.232 28.8025 28.0864 28.8025C28.9408 28.8025 29.7611 28.4674 30.3712 27.8692C30.9812 27.271 31.3323 26.4574 31.3491 25.6031V16.3229H35.2397V25.965C35.2397 29.9784 32.411 32.1285 28.0858 32.1285C23.7606 32.1285 20.933 29.9784 20.933 25.965" fill="#485665"/>
<path d="M37.5826 16.3229H41.4746V28.8902H48.8214V31.8843H37.5826V16.3229Z" fill="#485665"/>
<path d="M50.3177 16.3229H54.2097V28.8902H61.5577V31.8843H50.3177V16.3229Z" fill="#485665"/>
<path d="M63.392 19.3192H58.8239V16.3227H71.847V19.3192H67.2801V31.8853H63.3882L63.392 19.3192Z" fill="#485665"/>
<path d="M77.2404 16.3227H73.3485V31.8853H77.2404V16.3227Z" fill="#485665"/>
<path d="M8.20834 35.2004H19.5235V38.2058H12.104V41.4616H18.6294V44.507H12.104V50.7681H8.21336L8.20834 35.2004Z" fill="#485665"/>
<path d="M19.5333 43.0175C19.5333 37.2673 22.2155 34.9219 27.2971 34.9219C32.3486 34.9219 35.0546 37.2661 35.0546 43.0175C35.0546 48.481 32.3486 50.9679 27.2971 50.9679C22.2205 50.9679 19.5333 48.481 19.5333 43.0175ZM31.0613 43.0175C31.0613 39.5376 29.9004 38.2591 27.292 38.2591C24.6624 38.2591 23.4978 39.5389 23.4978 43.0175C23.4978 46.2095 24.6561 47.6595 27.292 47.6595C29.9004 47.6595 31.0613 46.2095 31.0613 43.0175Z" fill="#485665"/>
<path d="M36.7375 35.1624H44.5213C48.1941 35.1624 49.8846 37.2674 49.8846 40.5057C49.9102 41.4723 49.6392 42.4236 49.1079 43.2315C48.5766 44.0395 47.8107 44.6654 46.9131 45.025C47.3689 45.4307 47.7104 45.9488 47.9036 46.5276L49.7418 50.7314H45.6809L43.9415 46.7681C43.8406 46.4545 43.6331 46.1862 43.3549 46.0098C43.0767 45.8334 42.7455 45.7601 42.4188 45.8026H40.6307V50.7314H36.7387L36.7375 35.1624ZM43.4995 42.801C43.8174 42.8488 44.142 42.8234 44.4487 42.7269C44.7553 42.6303 45.0358 42.4651 45.269 42.2438C45.5022 42.0225 45.6818 41.7509 45.7942 41.4497C45.9065 41.1485 45.9487 40.8256 45.9175 40.5057C45.9175 38.9567 45.1662 38.1615 43.6636 38.1615H40.6194V42.7947L43.4995 42.801Z" fill="#485665"/>
<path d="M51.0205 43.0684C51.0205 37.8704 53.7992 34.9226 59.3591 34.9226C60.9643 34.906 62.5596 35.1761 64.0699 35.7203V39.1263C62.6698 38.5426 61.1665 38.247 59.6496 38.2573C56.4101 38.2573 54.985 39.76 54.985 43.0684C54.985 46.2315 56.5804 47.6603 59.6984 47.6603C61.206 47.6714 62.7008 47.3832 64.0962 46.8125V50.2486C62.5781 50.7559 60.9845 51.0007 59.3841 50.9724C53.9469 50.9724 51.0217 48.0259 51.0217 43.0721" fill="#485665"/>
<path d="M66.0742 35.1624H77.5546V38.1677H69.9674V41.4235H76.6605V44.4677H69.9674V47.731H77.5546V50.7276H66.0742V35.1624Z" fill="#485665"/>
<path d="M103.486 25.627H108.847V22.5804H102.436C102.97 22.7807 103.792 23.3993 103.537 25.3265C103.525 25.4104 103.506 25.5231 103.489 25.627" fill="#485665"/>
<path d="M101.77 31.8847H109.742V28.8907H102.705C102.454 29.7848 102.141 30.7916 101.77 31.8847Z" fill="#485665"/>
<path d="M98.2633 16.3227V28.3966C98.7467 27.0442 99.1987 25.6543 99.4542 24.8679L99.6132 24.377C99.7592 23.822 100.091 23.334 100.554 22.9945C101.017 22.6551 101.582 22.4849 102.155 22.5124V19.3192H109.744V16.3227H98.2633Z" fill="#485665"/>
<path d="M83.596 22.9444L86.6902 29.2294H88.8391L91.9095 22.9444V28.2326C92.2269 27.6915 92.6728 27.2371 93.2077 26.9094C93.7426 26.5818 94.35 26.3911 94.9762 26.3542C95.203 26.354 95.4291 26.38 95.6499 26.4319C95.7012 26.4444 95.7501 26.4695 95.8002 26.4845V16.3227H91.9809L87.7772 24.948L83.5484 16.3227H79.7041V31.8853H83.596V22.9444Z" fill="#485665"/>
<path d="M32.6653 14.3165C35.3613 12.8514 38.1901 11.479 41.1516 10.2305C66.5468 -0.46726 91.9081 2.15115 91.9081 14.3165H95.8C95.8 -0.698921 70.1294 -5.19191 40.5768 7.07866C35.7473 9.09397 31.0974 11.5153 26.6771 14.3165H32.6653Z" fill="#009AFF"/>
<path d="M100.771 24.7566C100.417 25.8348 99.2197 29.6403 98.3118 31.5775C96.3596 35.7449 95.2589 35.6597 89.6865 37.101C84.1141 38.5423 81.7875 43.0892 80.6304 45.3883C79.4733 47.6873 80.569 49.2314 81.8689 47.2015C83.0894 45.0661 84.6608 43.1514 86.5171 41.5377C88.284 40.3042 90.5919 39.4665 88.3266 43.8305C85.9473 48.3911 81.0637 54.0762 72.7752 58.8923C68.6999 61.0288 64.5008 62.9206 60.2003 64.5573C34.6336 74.2458 9.8909 71.1503 3.97539 57.1103C1.62371 51.5304 2.59794 45.0264 6.16678 38.4935V33.3005C0.341429 41.8557 -1.66214 50.7065 1.47719 58.161C7.91614 73.4381 33.6193 77.3889 60.3255 67.8156C67.447 65.2761 85.8597 58.1735 94.9321 44.0133C98.5254 38.2319 101.032 31.8424 102.328 25.1598C102.631 22.8745 101.126 23.6747 100.772 24.7516" fill="#009AFF"/>
</svg>